<svg id="e9ZvNBhDKYl1" xmlns="http://www.w3.org/2000/svg" xmlns:xlink="http://www.w3.org/1999/xlink" viewBox="0 0 280 16.75" shape-rendering="geometricPrecision" text-rendering="geometricPrecision"><path d="M0,60.04528l.00001-.00001v.00001h-.00001Zm288.62155,0h-8.41022c-11.05403-11.05403-28.97615-11.05403-40.03019,0s-28.97615,11.05403-40.03018,0c-.00164-.00164-.0033-.0033-.00494-.00494-11.05443-11.04909-28.97285-11.04743-40.02525.00494h-.00001c-11.05403,11.05403-28.97615,11.05403-40.03018,0-.00449-.00449-.00898-.00898-.01347-.01349-11.05512-11.04054-28.96716-11.03604-40.01669.01349h-.00003c-11.05403,11.05403-28.97615,11.05403-40.03018,0-.00293-.00293-.00584-.00584-.00876-.00876-11.05473-11.04525-28.97029-11.04232-40.0214.00876v-8.46132h288.62151l-.00001,8.46132Z" transform="matrix(1.174418 0 0 0.999993-24.177268-51.585321)" fill="#d2dbed" stroke-width="0"/></svg>
